# xmcd CD database file
#
# Track frame offsets:
#	150
#	26218
#	57954
#	83307
#	100706
#	124856
#	156093
#	177801
#	201236
#
# Disc length: 3001 seconds
#
# Revision: 0
# Processed by: cddbd v1.5.2PL0 Copyright (c) Steve Scherf et al.
# Submitted via: CDex 1.51
#
DISCID=6a0bb709
DTITLE=Flanigin, Langley and Smith - FlaniginLangleyAndSmith
DYEAR=2011
DGENRE=Jazz
TTITLE0=Step On It
TTITLE1=Get Serius
TTITLE2=El Hielero
TTITLE3=Dynamo
TTITLE4=Nightcap
TTITLE5=KC
TTITLE6=Soul Flower
TTITLE7=The Rattler
TTITLE8=Red Stripe
EXTD=YEAR: 2011
EXTT0=
EXTT1=
EXTT2=
EXTT3=
EXTT4=
EXTT5=
EXTT6=
EXTT7=
EXTT8=
PLAYORDER=
